<svg id="clear" xmlns="http://www.w3.org/2000/svg" xmlns:xlink="http://www.w3.org/1999/xlink" viewBox="0 0 333 262"><defs><radialGradient id="radial-gradient" cx="131" cy="131" r="131" gradientUnits="userSpaceOnUse"><stop offset="0" stop-color="#ff931e"/><stop offset="1" stop-color="#fff" stop-opacity="0"/></radialGradient><radialGradient id="radial-gradient-2" cx="130.5" cy="130.5" r="91.5" gradientUnits="userSpaceOnUse"><stop offset="0" stop-color="#fff"/><stop offset="0.16" stop-color="#fffdfc"/><stop offset="0.3" stop-color="#fff8f1"/><stop offset="0.43" stop-color="#fff0e0"/><stop offset="0.55" stop-color="#ffe4c7"/><stop offset="0.67" stop-color="#ffd5a8"/><stop offset="0.78" stop-color="#ffc281"/><stop offset="0.89" stop-color="#ffad54"/><stop offset="1" stop-color="#ff9420"/><stop offset="1" stop-color="#ff931e"/></radialGradient><linearGradient id="linear-gradient" x1="165.07" y1="136.83" x2="299.83" y2="271.6" gradientUnits="userSpaceOnUse"><stop offset="0" stop-color="#fff"/><stop offset="0.02" stop-color="#f9fcff"/><stop offset="0.14" stop-color="#e0efff"/><stop offset="0.27" stop-color="#cde5fe"/><stop offset="0.42" stop-color="#bfddfe"/><stop offset="0.61" stop-color="#b7d9fe"/><stop offset="0.96" stop-color="#b5d8fe"/></linearGradient></defs><circle cx="131" cy="131" r="131" style="fill:url(#radial-gradient)"/><circle cx="130.5" cy="130.5" r="91.5" style="fill:url(#radial-gradient-2)"/><path d="M346.29,214.35a48,48,0,0,1-48,48H164.59a48,48,0,1,1,9.7-95.1,61.92,61.92,0,0,1,123.6-1h.36A48,48,0,0,1,346.29,214.35Z" transform="translate(-14 -18)" style="fill:#b5d8fe"/><path d="M340.31,200.69a48,48,0,0,1-48,48H158.62a48,48,0,1,1,9.69-95.1,61.92,61.92,0,0,1,123.6-1h.36A48,48,0,0,1,340.31,200.69Z" transform="translate(-14 -18)" style="fill:#fff"/><path d="M347,204.53a48,48,0,0,1-48,48H165.31a48,48,0,1,1,9.69-95.1,61.92,61.92,0,0,1,123.6-1H299A48,48,0,0,1,347,204.53Z" transform="translate(-14 -18)" style="fill:url(#linear-gradient)"/></svg>