<svg id="cloud" xmlns="http://www.w3.org/2000/svg" viewBox="0 0 343 242.85">
	<defs>
		<style>
			.cls-1{
				fill: #b5d8fe;
			}
			.cls-2{
				fill: #fff;
			}
			.cls-3{
				fill: #e7f5fe;
			}
		</style>
	</defs>
	<path class="cls-1" d="M346,192.7a69.7,69.7,0,0,1-69.7,69.69H82.37a69.7,69.7,0,1,1,14.06-138A89.83,89.83,0,0,1,275.75,123h.52A69.71,69.71,0,0,1,346,192.7Z" transform="translate(-4 -19.54)"/>
	<path class="cls-2" d="M337.29,172.87a69.7,69.7,0,0,1-69.69,69.7H73.69a69.7,69.7,0,1,1,14.07-138,89.83,89.83,0,0,1,179.32-1.42h.52A69.69,69.69,0,0,1,337.29,172.87Z" transform="translate(-4 -19.54)"/>
	<path class="cls-3" d="M347,178.45a69.69,69.69,0,0,1-69.69,69.69H83.4a69.7,69.7,0,1,1,14.06-138,89.84,89.84,0,0,1,179.33-1.42h.52A69.7,69.7,0,0,1,347,178.45Z" transform="translate(-4 -19.54)"/>
</svg>