<svg id="rain" xmlns="http://www.w3.org/2000/svg" viewBox="0 0 338.03 274.51"><path d="M342.4,107.64A40.32,40.32,0,0,1,302.07,148H189.86A40.33,40.33,0,1,1,198,68.14a52,52,0,0,1,103.77-.82h.3A40.33,40.33,0,0,1,342.4,107.64Z" transform="translate(-4.97 -7.44)" style="fill:#404b51"/><path d="M337.38,96.17a40.33,40.33,0,0,1-40.33,40.33H184.84A40.33,40.33,0,1,1,193,56.66a52,52,0,0,1,103.77-.82h.3A40.33,40.33,0,0,1,337.38,96.17Z" transform="translate(-4.97 -7.44)" style="fill:#fff"/><path d="M343,99.4a40.33,40.33,0,0,1-40.33,40.33H190.46a40.33,40.33,0,1,1,8.14-79.84,52,52,0,0,1,103.77-.82h.3A40.33,40.33,0,0,1,343,99.4Z" transform="translate(-4.97 -7.44)" style="fill:#7a8c9a"/><path d="M249.34,121.25A46.75,46.75,0,0,1,202.59,168H72.52A46.75,46.75,0,1,1,82,75.46a60.26,60.26,0,0,1,120.29-1h.35A46.75,46.75,0,0,1,249.34,121.25Z" transform="translate(-4.97 -7.44)" style="fill:#404b51"/><path d="M234.36,136.25A46.75,46.75,0,0,1,187.61,183H57.54A46.75,46.75,0,1,1,67,90.46a60.26,60.26,0,0,1,120.29-1h.35A46.75,46.75,0,0,1,234.36,136.25Z" transform="translate(-4.97 -7.44)" style="fill:#404b51"/><path d="M228.54,123a46.75,46.75,0,0,1-46.75,46.75H51.72a46.75,46.75,0,1,1,9.44-92.54,60.25,60.25,0,0,1,120.28-1h.35A46.75,46.75,0,0,1,228.54,123Z" transform="translate(-4.97 -7.44)" style="fill:#fff"/><path d="M235.05,126.69a46.75,46.75,0,0,1-46.75,46.75H58.23A46.75,46.75,0,1,1,67.67,80.9,60.25,60.25,0,0,1,188,80h.35A46.75,46.75,0,0,1,235.05,126.69Z" transform="translate(-4.97 -7.44)" style="fill:#7a8c9a"/><path d="M65.19,224.15c-.17,18.78-8.11,22-12.79,21.09s-11-6.86-4.17-24.31c8.18-21,20.4-61.16,20.4-61.16S65.42,196.68,65.19,224.15Z" transform="translate(-4.97 -7.44)" style="fill:#5acaef"/><path d="M158.71,189.73c-.16,18.77-8.11,22-12.79,21.09s-11-6.86-4.16-24.31c8.17-21,20.4-61.17,20.4-61.17S159,162.26,158.71,189.73Z" transform="translate(-4.97 -7.44)" style="fill:#5acaef"/><path d="M297.26,180c-.15,17.55-7.57,20.54-11.95,19.71s-10.26-6.41-3.89-22.72c7.64-19.59,19.06-57.17,19.06-57.17S297.48,154.31,297.26,180Z" transform="translate(-4.97 -7.44)" style="fill:#5acaef"/><path d="M236.71,247.73c-.16,18.77-8.11,22-12.79,21.09s-11-6.86-4.16-24.31c8.17-21,20.4-61.17,20.4-61.17S237,220.26,236.71,247.73Z" transform="translate(-4.97 -7.44)" style="fill:#5acaef"/><path d="M117.71,260.73c-.16,18.77-8.11,22-12.79,21.09s-11-6.86-4.16-24.31c8.17-21,20.4-61.17,20.4-61.17S118,233.26,117.71,260.73Z" transform="translate(-4.97 -7.44)" style="fill:#5acaef"/></svg>