<svg id="thunderstorm" xmlns="http://www.w3.org/2000/svg" viewBox="0 0 338.03 279.34"><path d="M343,116.09a40.33,40.33,0,0,1-40.33,40.33H190.43a40.33,40.33,0,1,1,8.14-79.83,52,52,0,0,1,103.77-.82h.3A40.33,40.33,0,0,1,343,116.09Z" transform="translate(-5.54 -15.89)" style="fill:#404b51"/><path d="M338,104.62A40.33,40.33,0,0,1,297.62,145H185.41a40.33,40.33,0,1,1,0-80.66,39.71,39.71,0,0,1,8.14.83,52,52,0,0,1,103.77-.83h.3A40.33,40.33,0,0,1,338,104.62Z" transform="translate(-5.54 -15.89)" style="fill:#fff"/><path d="M343.57,107.85a40.33,40.33,0,0,1-40.33,40.33H191a40.33,40.33,0,1,1,8.13-79.84,52,52,0,0,1,103.77-.82h.31A40.33,40.33,0,0,1,343.57,107.85Z" transform="translate(-5.54 -15.89)" style="fill:#7a8c9a"/><path d="M249.9,129.7a46.75,46.75,0,0,1-46.75,46.75H73.08a46.75,46.75,0,1,1,9.44-92.54A60.25,60.25,0,0,1,202.8,83h.35A46.75,46.75,0,0,1,249.9,129.7Z" transform="translate(-5.54 -15.89)" style="fill:#404b51"/><path d="M234.93,144.7a46.76,46.76,0,0,1-46.75,46.75H58.11a46.75,46.75,0,1,1,9.43-92.54,60.26,60.26,0,0,1,120.29-1h.35A46.76,46.76,0,0,1,234.93,144.7Z" transform="translate(-5.54 -15.89)" style="fill:#404b51"/><path d="M229.11,131.4a46.75,46.75,0,0,1-46.75,46.75H52.29a46.75,46.75,0,1,1,9.43-92.54,60.26,60.26,0,0,1,120.29-1h.35A46.75,46.75,0,0,1,229.11,131.4Z" transform="translate(-5.54 -15.89)" style="fill:#fff"/><path d="M235.62,135.14a46.75,46.75,0,0,1-46.75,46.75H58.8a46.75,46.75,0,1,1,9.43-92.54,60.26,60.26,0,0,1,120.29-.95h.35A46.75,46.75,0,0,1,235.62,135.14Z" transform="translate(-5.54 -15.89)" style="fill:#7a8c9a"/><path id="drop1" d="M65.75,232.6c-.16,18.78-8.1,22-12.79,21.09s-11-6.85-4.16-24.31c8.17-21,20.4-61.16,20.4-61.16S66,205.13,65.75,232.6Z" transform="translate(-5.54 -15.89)" style="fill:#5acaef"/><path id="drop2" d="M297.83,188.44c-.15,17.55-7.58,20.54-11.95,19.71s-10.26-6.41-3.9-22.72c7.65-19.59,19.07-57.17,19.07-57.17S298.05,162.77,297.83,188.44Z" transform="translate(-5.54 -15.89)" style="fill:#5acaef"/><path id="drop3" d="M118.28,269.18c-.17,18.77-8.11,22-12.79,21.09s-11-6.86-4.17-24.31c8.18-21,20.4-61.17,20.4-61.17S118.51,241.71,118.28,269.18Z" transform="translate(-5.54 -15.89)" style="fill:#5acaef"/><g id="lightning"><polygon points="237.2 134.11 201.2 163.11 283.46 182.11 199.83 279.34 235.07 202.92 134.79 170.67 130.2 134.11 237.2 134.11" style="fill:#f5cb97"/><polygon points="222.46 134.11 186.46 163.11 269.09 182.04 200.94 275.62 219.59 212.63 104.46 189.11 115.46 134.11 222.46 134.11" style="fill:#f8eb8c"/></g><path id="drop4" d="M183.28,246.18c-.17,18.77-8.11,22-12.79,21.09s-11-6.86-4.17-24.31c8.18-21,20.4-61.17,20.4-61.17S183.51,218.71,183.28,246.18Z" transform="translate(-5.54 -15.89)" style="fill:#5acaef"/></svg>